<svg width="90" height="40" xmlns="http://www.w3.org/2000/svg">
 <!-- Created with Method Draw - http://github.com/duopixel/Method-Draw/ -->

 <g>
  <title>background</title>
  <rect fill="#fff" id="canvas_background" height="42" width="92" y="-1" x="-1"/>
 </g>
 <g>
  <title>Layer 1</title>
  <style transform="matrix(0.27339914973652313,0,0,0.27339914973652313,0,0) " type="text/css">.st0{fill:#020202;}</style>
  <style transform="matrix(0.28444447411431284,0,0,0.28444447411431284,0,0) " type="text/css">.st0{fill:#020202;}</style>
  <style transform="matrix(0.27339914973652313,0,0,0.27339914973652313,0,0) " type="text/css">.st0{fill:#000;}</style>
  <!-- <rect x="129.6" y="481.4" class="st0" width="352.4" height="23.9" id="underlineSvg"/> -->
  <!-- <rect x="136.6" y="116.9" class="st0" width="25.3" height="148.9"/> -->
  <!-- <path class="st0" d="M254.6,116.9l-62.1,148.9c0,0,6.2,0,18.4,0c5.3-24.3,23.7-29.9,27.3-31c18.7,9.8,29.9,1.7,34.5-1.1
	c23.3,9,26.3,32.1,26.3,32.1h17.8L254.6,116.9z M254.6,227.3c-12.7,0-23-10.3-23-23c0-12.7,10.3-23,23-23c12.7,0,23,10.3,23,23
	C277.6,217,267.3,227.3,254.6,227.3z"/> -->
  <!-- <polygon class="st0" points="329.6,265.8 329.6,116.9 354.6,116.9 416.4,265.8 389.1,265.8 353.9,181.3 353.9,265.8 "/> -->
  <!-- <polygon class="st0" points="475.6,265.8 475.6,116.9 450.6,116.9 409.1,217.5 422.6,250 451.6,181.3 451.6,265.8 "/> -->
  <g id="svg_32">
   <rect transform="matrix(0.27339914973652313,0,0,0.27339914973652313,0,0) " id="svg_30" height="148.9" width="25.3" class="st0" y="0.00023" x="0.00004"/>
   <path d="m32.26111,0.00006l-16.97809,40.70913c0,0 1.69507,0 5.03054,0c1.44902,-6.6436 6.47956,-8.17463 7.4638,-8.47537c5.11256,2.67931 8.17463,0.46478 9.43227,-0.30074c6.3702,2.46059 7.1904,8.77611 7.1904,8.77611l4.8665,0l-17.00543,-40.70913zm0,30.18327c-3.47217,0 -6.28818,-2.81601 -6.28818,-6.28818c0,-3.47217 2.81601,-6.28818 6.28818,-6.28818c3.47217,0 6.28818,2.81601 6.28818,6.28818c0,3.47217 -2.81601,6.28818 -6.28818,6.28818z" class="st0" id="svg_29"/>
   <polygon points="52.76605224609375,40.709197998046875 52.76605224609375,0.00006103515625 59.60101318359375,0.00006103515625 76.4970703125,40.709197998046875 69.0333251953125,40.709197998046875 59.40966796875,17.606964111328125 59.40966796875,40.709197998046875 " class="st0" id="svg_28"/>
   <polygon points="92.68231201171875,40.709197998046875 92.68231201171875,0.00006103515625 85.84735107421875,0.00006103515625 74.50128173828125,27.5040283203125 78.192138671875,36.389495849609375 86.1207275390625,17.606964111328125 86.1207275390625,40.709197998046875 " id="svg_27" class="st0"/>
  </g>
 </g>
</svg>