<?xml version="1.0" standalone="no"?>
<!DOCTYPE svg PUBLIC "-//W3C//DTD SVG 20010904//EN"
 "http://www.w3.org/TR/2001/REC-SVG-20010904/DTD/svg10.dtd">
<svg version="1.0" xmlns="http://www.w3.org/2000/svg" x="0px" y="0px"
viewBox="0 0 712 656" style="enable-background:new 0 0 612 656;" xml:space="preserve">
 preserveAspectRatio="xMidYMid meet">

<g transform="translate(0.000000,566.000000) scale(0.100000,-0.100000)"
fill="#2a2833" stroke="none">
<path d="M3020 5646 c-20 -8 -67 -35 -105 -60 -39 -26 -81 -49 -95 -52 -14 -3
-43 -12 -65 -19 -126 -43 -286 -67 -445 -66 -158 1 -274 25 -371 77 -26 13
-54 24 -62 24 -9 0 -45 15 -81 34 -36 19 -81 39 -99 45 -32 11 -36 9 -81 -33
-27 -24 -58 -48 -70 -54 -11 -6 -228 -92 -481 -193 -253 -100 -465 -187 -471
-193 -17 -17 -335 -818 -400 -1006 -159 -463 -182 -536 -175 -543 5 -5 48 -24
97 -42 49 -18 131 -50 182 -70 154 -59 444 -125 554 -125 23 0 57 -5 78 -11
l37 -11 17 -182 c13 -142 16 -313 17 -801 1 -341 -2 -726 -6 -855 -17 -552
-22 -762 -24 -1052 l-2 -307 28 -14 c48 -25 262 -65 408 -77 544 -43 1034 -66
1155 -54 41 4 93 7 115 7 89 -3 673 80 815 116 60 15 170 52 174 60 3 4 -2
333 -10 731 -8 399 -13 885 -11 1080 1 195 1 465 -1 600 -3 221 8 531 24 681
l6 56 52 11 c28 6 83 14 121 17 174 13 529 124 732 228 35 18 63 36 63 41 0
35 -228 701 -308 901 -43 107 -223 509 -271 604 -26 51 -34 58 -78 73 -26 9
-165 64 -308 123 -143 59 -289 118 -325 133 -65 25 -130 68 -230 150 -28 23
-55 42 -58 41 -4 0 -23 -6 -42 -13z"/>
</g>
</svg>
