<?xml version="1.0" encoding="utf-8"?>
<!-- Generator: Adobe Illustrator 19.0.0, SVG Export Plug-In . SVG Version: 6.00 Build 0)  -->
<svg version="1.1" id="Layer_1" xmlns="http://www.w3.org/2000/svg" xmlns:xlink="http://www.w3.org/1999/xlink" x="0px" y="0px"
	 viewBox="0 0 612 608" style="enable-background:new 0 0 612 608;" xml:space="preserve">
	    <rect width="1300" height="1500" fill="white" />
<style type="text/css">
	.st0{fill:#020202;}
</style>
<path class="st0" d="M33.1,32.7V579h546.3V32.7H33.1z M563.8,561.7H49.9V47.8h513.9V561.7z"/>
<!-- <rect x="136.6" y="116.9" class="st0" width="25.3" height="148.9"/> -->
<!-- <path class="st0" d="M254.6,116.9l-62.1,148.9c0,0,6.2,0,18.4,0c5.3-24.3,23.7-29.9,27.3-31c18.7,9.8,29.9,1.7,34.5-1.1
	c23.3,9,26.3,32.1,26.3,32.1h17.8L254.6,116.9z M254.6,227.3c-12.7,0-23-10.3-23-23c0-12.7,10.3-23,23-23c12.7,0,23,10.3,23,23
	C277.6,217,267.3,227.3,254.6,227.3z"/> -->
<!-- <polygon class="st0" points="329.6,265.8 329.6,116.9 354.6,116.9 416.4,265.8 389.1,265.8 353.9,181.3 353.9,265.8 "/> -->
<!-- <polygon class="st0" points="475.6,265.8 475.6,116.9 450.6,116.9 409.1,217.5 422.6,250 451.6,181.3 451.6,265.8 "/> -->
<rect x="129.6" y="481.4" class="st0" width="352.4" height="23.9"/>
</svg>