<svg width="304" height="150" xmlns="http://www.w3.org/2000/svg">
 <!-- Created with Method Draw - http://github.com/duopixel/Method-Draw/ -->

 <g>
  <title>background</title>
  <rect fill="#fff" id="canvas_background" height="152" width="306" y="-1" x="-1"/>
  <g display="none" overflow="visible" y="0" x="0" height="100%" width="100%" id="canvasGrid">
   <rect fill="url(#gridpattern)" stroke-width="0" y="0" x="0" height="100%" width="100%"/>
  </g>
 </g>
 <g>
  <title>Layer 1</title>
  <style transform="matrix(0.10679653799616862,0,0,0.10679653799616862,0,0) " type="text/css">.st0{fill:#000;}</style>
  <!-- <rect x="129.6" y="481.4" class="st0" width="352.4" height="23.9" id="underlineSvg"/> -->
  <g stroke="null" id="svg_13">
   <rect stroke="null" transform="matrix(0.8973571322981646,0,0,1.0000128835160405,-2967.9969193605098,-2470.6158872289916) " id="svg_11" height="148.9" width="25.3" class="st0" y="2471.63322" x="3307.37325"/>
   <path stroke="null" d="m105.78619,1.04918l-55.72588,148.90192c0,0 5.56361,0 16.51137,0c4.75599,-24.30031 21.26736,-29.90039 24.49785,-31.0004c16.78058,9.80013 26.83098,1.70002 30.95882,-1.10001c20.90842,9.00012 23.60049,32.10041 23.60049,32.10041l15.97296,0l-55.81561,-148.90192zm0,110.40142c-11.39644,0 -20.63921,-10.30013 -20.63921,-23.0003c0,-12.70016 9.24278,-23.0003 20.63921,-23.0003c11.39644,0 20.63921,10.30013 20.63921,23.0003c0,12.70016 -9.24278,23.0003 -20.63921,23.0003z" class="st0" id="svg_10"/>
   <polygon stroke="null" points="173.08795166015625,149.95095825195312 173.08795166015625,1.04931640625 195.52194213867188,1.04931640625 250.9783935546875,149.95095825195312 226.48077392578125,149.95095825195312 194.8936767578125,65.45001220703125 194.8936767578125,149.95095825195312 " class="st0" id="svg_9"/>
   <polygon stroke="null" points="304.10198974609375,149.95095825195312 304.10198974609375,1.04931640625 281.66827392578125,1.04931640625 244.42782592773438,101.650390625 256.5420227050781,134.15081787109375 282.5655517578125,65.45001220703125 282.5655517578125,149.95095825195312 " id="svg_8" class="st0"/>
  </g>
 </g>
</svg>